<mxfile host="app.diagrams.net" modified="2024-03-30T11:34:21.710Z" agent="Mozilla/5.0 (Windows NT 10.0; Win64; x64) AppleWebKit/537.36 (KHTML, like Gecko) Chrome/122.0.0.0 Safari/537.36 Avast/122.0.0.0" etag="u6uHGnwyFirf2R_i9q1K" version="24.0.3" type="github">
  <diagram id="R2lEEEUBdFMjLlhIrx00" name="Page-1">
    <mxGraphModel dx="2000" dy="596" grid="1" gridSize="10" guides="1" tooltips="1" connect="1" arrows="1" fold="1" page="1" pageScale="1" pageWidth="850" pageHeight="1100" math="0" shadow="0" extFonts="Permanent Marker^https://fonts.googleapis.com/css?family=Permanent+Marker">
      <root>
        <mxCell id="0" />
        <mxCell id="1" parent="0" />
        <mxCell id="NIJDBZ4MrYMV8-KYEW-T-16" value="" style="edgeStyle=none;curved=1;rounded=0;orthogonalLoop=1;jettySize=auto;html=1;fontSize=12;startSize=8;endSize=8;" edge="1" parent="1" source="NIJDBZ4MrYMV8-KYEW-T-1" target="NIJDBZ4MrYMV8-KYEW-T-15">
          <mxGeometry relative="1" as="geometry" />
        </mxCell>
        <mxCell id="NIJDBZ4MrYMV8-KYEW-T-18" value="" style="edgeStyle=none;curved=1;rounded=0;orthogonalLoop=1;jettySize=auto;html=1;fontSize=12;startSize=8;endSize=8;" edge="1" parent="1" source="NIJDBZ4MrYMV8-KYEW-T-1" target="NIJDBZ4MrYMV8-KYEW-T-17">
          <mxGeometry relative="1" as="geometry" />
        </mxCell>
        <mxCell id="NIJDBZ4MrYMV8-KYEW-T-19" value="" style="edgeStyle=none;curved=1;rounded=0;orthogonalLoop=1;jettySize=auto;html=1;fontSize=12;startSize=8;endSize=8;" edge="1" parent="1" source="NIJDBZ4MrYMV8-KYEW-T-1" target="NIJDBZ4MrYMV8-KYEW-T-17">
          <mxGeometry relative="1" as="geometry" />
        </mxCell>
        <mxCell id="NIJDBZ4MrYMV8-KYEW-T-20" value="" style="edgeStyle=none;curved=1;rounded=0;orthogonalLoop=1;jettySize=auto;html=1;fontSize=12;startSize=8;endSize=8;" edge="1" parent="1" source="NIJDBZ4MrYMV8-KYEW-T-1" target="NIJDBZ4MrYMV8-KYEW-T-17">
          <mxGeometry relative="1" as="geometry" />
        </mxCell>
        <mxCell id="NIJDBZ4MrYMV8-KYEW-T-21" value="" style="edgeStyle=none;curved=1;rounded=0;orthogonalLoop=1;jettySize=auto;html=1;fontSize=12;startSize=8;endSize=8;" edge="1" parent="1" source="NIJDBZ4MrYMV8-KYEW-T-1" target="NIJDBZ4MrYMV8-KYEW-T-17">
          <mxGeometry relative="1" as="geometry" />
        </mxCell>
        <mxCell id="NIJDBZ4MrYMV8-KYEW-T-1" value="Air port" style="whiteSpace=wrap;html=1;align=center;" vertex="1" parent="1">
          <mxGeometry x="380" y="80" width="120" height="40" as="geometry" />
        </mxCell>
        <mxCell id="NIJDBZ4MrYMV8-KYEW-T-6" style="edgeStyle=none;curved=1;rounded=0;orthogonalLoop=1;jettySize=auto;html=1;entryX=0.5;entryY=1;entryDx=0;entryDy=0;fontSize=12;startSize=8;endSize=8;" edge="1" parent="1">
          <mxGeometry relative="1" as="geometry">
            <mxPoint x="660" y="80" as="sourcePoint" />
            <mxPoint x="660" y="80" as="targetPoint" />
          </mxGeometry>
        </mxCell>
        <mxCell id="NIJDBZ4MrYMV8-KYEW-T-15" value="Air_name" style="ellipse;whiteSpace=wrap;html=1;" vertex="1" parent="1">
          <mxGeometry x="600" y="10" width="80" height="50" as="geometry" />
        </mxCell>
        <mxCell id="NIJDBZ4MrYMV8-KYEW-T-17" value="Air_ID" style="ellipse;whiteSpace=wrap;html=1;" vertex="1" parent="1">
          <mxGeometry x="210" y="10" width="80" height="50" as="geometry" />
        </mxCell>
        <mxCell id="NIJDBZ4MrYMV8-KYEW-T-22" value="has" style="shape=rhombus;perimeter=rhombusPerimeter;whiteSpace=wrap;html=1;align=center;" vertex="1" parent="1">
          <mxGeometry x="150" y="160" width="80" height="60" as="geometry" />
        </mxCell>
        <mxCell id="NIJDBZ4MrYMV8-KYEW-T-23" value="" style="endArrow=none;html=1;rounded=0;fontSize=12;startSize=8;endSize=8;curved=1;" edge="1" parent="1">
          <mxGeometry relative="1" as="geometry">
            <mxPoint x="190" y="100" as="sourcePoint" />
            <mxPoint x="380" y="99.5" as="targetPoint" />
            <Array as="points">
              <mxPoint x="290" y="99.5" />
            </Array>
          </mxGeometry>
        </mxCell>
        <mxCell id="NIJDBZ4MrYMV8-KYEW-T-24" value="" style="endArrow=none;html=1;rounded=0;fontSize=12;startSize=8;endSize=8;curved=1;" edge="1" parent="1">
          <mxGeometry relative="1" as="geometry">
            <mxPoint x="189.5" y="100" as="sourcePoint" />
            <mxPoint x="190" y="160" as="targetPoint" />
          </mxGeometry>
        </mxCell>
        <mxCell id="NIJDBZ4MrYMV8-KYEW-T-27" value="" style="endArrow=none;html=1;rounded=0;fontSize=12;startSize=8;endSize=8;curved=1;" edge="1" parent="1" target="NIJDBZ4MrYMV8-KYEW-T-28">
          <mxGeometry relative="1" as="geometry">
            <mxPoint x="189.5" y="220" as="sourcePoint" />
            <mxPoint x="190" y="350" as="targetPoint" />
          </mxGeometry>
        </mxCell>
        <mxCell id="NIJDBZ4MrYMV8-KYEW-T-30" value="" style="edgeStyle=none;curved=1;rounded=0;orthogonalLoop=1;jettySize=auto;html=1;fontSize=12;startSize=8;endSize=8;" edge="1" parent="1" source="NIJDBZ4MrYMV8-KYEW-T-28" target="NIJDBZ4MrYMV8-KYEW-T-29">
          <mxGeometry relative="1" as="geometry" />
        </mxCell>
        <mxCell id="NIJDBZ4MrYMV8-KYEW-T-32" value="" style="edgeStyle=none;curved=1;rounded=0;orthogonalLoop=1;jettySize=auto;html=1;fontSize=12;startSize=8;endSize=8;" edge="1" parent="1" source="NIJDBZ4MrYMV8-KYEW-T-28" target="NIJDBZ4MrYMV8-KYEW-T-31">
          <mxGeometry relative="1" as="geometry" />
        </mxCell>
        <mxCell id="NIJDBZ4MrYMV8-KYEW-T-34" value="" style="edgeStyle=none;curved=1;rounded=0;orthogonalLoop=1;jettySize=auto;html=1;fontSize=12;startSize=8;endSize=8;" edge="1" parent="1" source="NIJDBZ4MrYMV8-KYEW-T-28" target="NIJDBZ4MrYMV8-KYEW-T-33">
          <mxGeometry relative="1" as="geometry" />
        </mxCell>
        <mxCell id="NIJDBZ4MrYMV8-KYEW-T-36" value="" style="edgeStyle=none;curved=1;rounded=0;orthogonalLoop=1;jettySize=auto;html=1;fontSize=12;startSize=8;endSize=8;" edge="1" parent="1" source="NIJDBZ4MrYMV8-KYEW-T-28" target="NIJDBZ4MrYMV8-KYEW-T-35">
          <mxGeometry relative="1" as="geometry" />
        </mxCell>
        <mxCell id="NIJDBZ4MrYMV8-KYEW-T-28" value="Managers" style="whiteSpace=wrap;html=1;align=center;" vertex="1" parent="1">
          <mxGeometry x="140" y="320" width="100" height="40" as="geometry" />
        </mxCell>
        <mxCell id="NIJDBZ4MrYMV8-KYEW-T-29" value="Phone" style="ellipse;whiteSpace=wrap;html=1;" vertex="1" parent="1">
          <mxGeometry x="150" y="440" width="80" height="50" as="geometry" />
        </mxCell>
        <mxCell id="NIJDBZ4MrYMV8-KYEW-T-31" value="Name" style="ellipse;whiteSpace=wrap;html=1;" vertex="1" parent="1">
          <mxGeometry x="-10" y="380" width="80" height="50" as="geometry" />
        </mxCell>
        <mxCell id="NIJDBZ4MrYMV8-KYEW-T-33" value="Social.no" style="ellipse;whiteSpace=wrap;html=1;" vertex="1" parent="1">
          <mxGeometry x="-10" y="250" width="80" height="50" as="geometry" />
        </mxCell>
        <mxCell id="NIJDBZ4MrYMV8-KYEW-T-35" value="Address" style="ellipse;whiteSpace=wrap;html=1;" vertex="1" parent="1">
          <mxGeometry x="310" y="250" width="80" height="50" as="geometry" />
        </mxCell>
        <mxCell id="NIJDBZ4MrYMV8-KYEW-T-45" value="has" style="shape=rhombus;perimeter=rhombusPerimeter;whiteSpace=wrap;html=1;align=center;" vertex="1" parent="1">
          <mxGeometry x="400" y="310" width="80" height="60" as="geometry" />
        </mxCell>
        <mxCell id="NIJDBZ4MrYMV8-KYEW-T-48" value="" style="whiteSpace=wrap;html=1;" vertex="1" parent="1">
          <mxGeometry x="630" y="320" width="100" height="40" as="geometry" />
        </mxCell>
        <mxCell id="NIJDBZ4MrYMV8-KYEW-T-50" style="edgeStyle=none;curved=1;rounded=0;orthogonalLoop=1;jettySize=auto;html=1;exitX=0.5;exitY=1;exitDx=0;exitDy=0;fontSize=12;startSize=8;endSize=8;" edge="1" parent="1" source="NIJDBZ4MrYMV8-KYEW-T-48" target="NIJDBZ4MrYMV8-KYEW-T-48">
          <mxGeometry relative="1" as="geometry" />
        </mxCell>
        <mxCell id="NIJDBZ4MrYMV8-KYEW-T-56" value="" style="endArrow=none;html=1;rounded=0;fontSize=12;startSize=8;endSize=8;curved=1;exitX=1;exitY=0.5;exitDx=0;exitDy=0;entryX=0;entryY=0.5;entryDx=0;entryDy=0;entryPerimeter=0;" edge="1" parent="1" source="NIJDBZ4MrYMV8-KYEW-T-45" target="NIJDBZ4MrYMV8-KYEW-T-48">
          <mxGeometry relative="1" as="geometry">
            <mxPoint x="520" y="340" as="sourcePoint" />
            <mxPoint x="620" y="340" as="targetPoint" />
          </mxGeometry>
        </mxCell>
        <mxCell id="NIJDBZ4MrYMV8-KYEW-T-57" value="1" style="resizable=0;html=1;whiteSpace=wrap;align=right;verticalAlign=bottom;" connectable="0" vertex="1" parent="NIJDBZ4MrYMV8-KYEW-T-56">
          <mxGeometry x="1" relative="1" as="geometry" />
        </mxCell>
        <mxCell id="NIJDBZ4MrYMV8-KYEW-T-43" value="" style="shape=link;html=1;rounded=0;fontSize=12;curved=1;" edge="1" parent="1">
          <mxGeometry relative="1" as="geometry">
            <mxPoint x="240" y="339.5" as="sourcePoint" />
            <mxPoint x="400" y="340" as="targetPoint" />
          </mxGeometry>
        </mxCell>
        <mxCell id="NIJDBZ4MrYMV8-KYEW-T-44" value="1" style="resizable=0;html=1;whiteSpace=wrap;align=right;verticalAlign=bottom;" connectable="0" vertex="1" parent="NIJDBZ4MrYMV8-KYEW-T-43">
          <mxGeometry x="1" relative="1" as="geometry" />
        </mxCell>
      </root>
    </mxGraphModel>
  </diagram>
</mxfile>
